<svg width="1440" height="972" xmlns="http://www.w3.org/2000/svg"><defs><radialGradient cx="27.312%" cy="16.634%" fx="27.312%" fy="16.634%" r="77.716%" gradientTransform="matrix(.96162 .22185 -.27438 .77753 .056 -.024)" id="radialGradient-1"><stop stop-color="#1B1744" offset="0%"/><stop stop-color="#0D0B24" offset="100%"/></radialGradient><radialGradient cx="81.035%" cy="69.181%" fx="81.035%" fy="69.181%" r="51.533%" gradientTransform="scale(-1 -.84488) rotate(69.821 1.082 -1.225)" id="radialGradient-2"><stop stop-color="#1B1744" offset="0%"/><stop stop-color="#0D0B24" offset="100%"/></radialGradient></defs><g id="DeCenter" fill="none" fill-rule="evenodd"><g id="feed/post_night"><g id="Background" transform="translate(-402 -207)"><path d="M243.398 110.755c120.804-68.377 292.628 64.94 389.916 169.885 41.782 45.07 60.071 146.109 54.868 303.114-3.188 96.186-83.746 171.577-179.933 168.39a174.257 174.257 0 0 1-95.553-32.39L203.65 570.347a100 100 0 0 1-41.372-71.547c-21.295-216.034 5.745-345.382 81.12-388.045z" id="Shape-2" fill="url(#radialGradient-1)" transform="rotate(135 422.143 422.143)"/><path d="M1939.463 683.857c104.224 10.594 193.534 61.06 267.928 151.397 54.745 66.477 80.5 163.353 77.263 290.628-2.645 104.015-89.11 186.19-193.125 183.546a188.396 188.396 0 0 1-104.755-35.061l-189.01-135.085c-33.901-24.229-49.225-66.94-38.458-107.195l73.44-274.58c12.68-47.411 57.891-78.613 106.717-73.65z" id="Shape-1" fill="url(#radialGradient-2)" transform="rotate(135 2020.415 996.415)"/></g></g></g></svg>