<svg width="26" height="27" xmlns="http://www.w3.org/2000/svg"><g id="DeCenter" fill="none" fill-rule="evenodd"><g id="feed/post_night" transform="translate(-1377 -33)" fill="#FFF"><g id="Navigation-Bar"><g id="Icon-/-Navigation-/-LIght-Off" transform="translate(1370 26)"><g id="night-icons-for" transform="translate(7 7)"><path d="M4.53.516a1 1 0 1 0-.028 2 1 1 0 0 0 .027-2zm16.97 0a1 1 0 1 0-.03 2 1 1 0 0 0 .03-2zM13 1c-4.959 0-9 4.041-9 9 0 3.278 1.447 5.35 2.738 6.865C8.03 18.381 9 19.315 9 20.738V24a2 2 0 0 0 2 2h.27A2 2 0 0 0 13 27a2 2 0 0 0 1.729-1H15a2 2 0 0 0 2-2v-3.262c0-1.423.97-2.357 2.262-3.873C20.552 15.35 22 13.278 22 10c0-4.959-4.041-9-9-9zm0 2c3.877 0 7 3.123 7 7 0 2.722-1.053 4.15-2.262 5.568C16.53 16.988 15 18.423 15 20.738V21h-4v-.262c0-2.315-1.53-3.75-2.738-5.17C7.052 14.15 6 12.722 6 10c0-3.877 3.123-7 7-7zM1.936 4.408a1 1 0 1 0-.047 2 1 1 0 0 0 .047-2zm22.158 0a1 1 0 0 0-.931.615 1 1 0 1 0 .93-.615zM1 9a1 1 0 1 0 0 2 1 1 0 0 0 0-2zm24 0a1 1 0 1 0 0 2 1 1 0 0 0 0-2zM1.92 13.592a1 1 0 1 0-.012 2 1 1 0 0 0 .012-2zm22.187 0a1 1 0 1 0-.042 2 1 1 0 0 0 .042-2zM4.53 17.484a1 1 0 1 0-.03 2 1 1 0 0 0 .03-2zm16.969.002a1 1 0 1 0 .693 1.707 1 1 0 0 0-.693-1.707z" id="Shape" fill-rule="nonzero"/></g></g></g></g></g></svg>