<svg width="189" height="40" xmlns="http://www.w3.org/2000/svg"><g id="DeCenter" fill="none" fill-rule="evenodd"><g id="feed/post_night" transform="translate(-626 -26)" fill="#FFF"><g id="Navigation-Bar"><g id="Logo-/-Footer" transform="translate(626 26)"><g id="Logo"><path d="M1.015 0h15.448C27.705 0 36.77 8.147 36.77 19.963 36.77 31.853 27.705 40 16.463 40H1.015C.29 40 0 39.706 0 38.972V1.028C0 .44.435 0 1.015 0zm20.936 17.13c-4.607 0-8.12 3.42-8.12 8.087s3.542 8.174 8.12 8.174c2.85 0 5.384-1.275 6.853-3.71.115-.174.057-.348-.058-.464l-1.814-1.449c-.201-.174-.345-.145-.46 0-1.18 1.71-2.563 2.435-4.52 2.435-2.851 0-4.78-2.116-4.78-4.986 0-2.84 1.9-4.898 4.78-4.898 1.928 0 3.253.753 4.433 2.348.115.145.346.232.547.058l1.814-1.392c.115-.087.173-.26.058-.463-1.382-2.377-4.146-3.74-6.853-3.74z" id="Combined-Shape"/><path d="M54.9 30.77V8.933h6.293c7.403 0 11.312 3.987 11.312 11.08 0 6.8-4.032 10.755-11.342 10.755h-6.264zm3.908-3.601h1.985c4.786 0 7.803-1.87 7.803-7.325 0-5.177-2.109-7.31-7.464-7.31h-2.324V27.17zm23.807 3.786c-5.124 0-7.679-3.694-7.679-7.82 0-4.048 2.385-8.005 7.402-8.005 5.618 0 7.249 3.987 7.249 7.974a5.2 5.2 0 0 1-.123 1.175H78.907c.246 1.9 1.446 3.168 3.678 3.168 1.677 0 2.754-.278 3.847-1.422l2.585 2.272c-1.8 1.931-3.847 2.658-6.402 2.658zm-3.708-9.396h6.986c-.246-2.086-1.323-3.26-3.555-3.26-2.077 0-3.124 1.39-3.431 3.26zm23.376 9.52c4.325 0 7.787-2.21 9.526-6.29l-3.632-1.484c-1.17 2.936-3.093 4.05-5.894 4.05-4.663 0-6.648-3.323-6.648-7.666 0-4.049 1.985-7.371 6.587-7.371 2.831 0 5.078 1.113 5.894 3.987l3.662-1.453c-1.77-4.08-5.201-6.274-9.526-6.274-7.156 0-10.495 5.285-10.495 11.266 0 5.996 3.37 11.234 10.526 11.234zm19.068-.124c-5.125 0-7.68-3.694-7.68-7.82 0-4.048 2.386-8.005 7.403-8.005 5.617 0 7.248 3.987 7.248 7.974a5.2 5.2 0 0 1-.123 1.175h-10.557c.246 1.9 1.446 3.168 3.678 3.168 1.677 0 2.755-.278 3.847-1.422l2.586 2.272c-1.801 1.931-3.848 2.658-6.402 2.658zm-3.71-9.396h6.988c-.247-2.086-1.324-3.26-3.555-3.26-2.078 0-3.124 1.39-3.432 3.26zm13.836 9.21h3.801v-8.453c0-1.931 1.77-3.724 3.847-3.724 1.955 0 2.463 1.484 2.463 3.384v8.793h3.816v-9.272c0-3.23-1.646-6.428-5.678-6.428-1.509 0-3.217.54-4.448 2.055v-1.793h-3.801V30.77zm23.915.31c1.539 0 2.77-.464 2.77-.464V27.2s-1.093.525-2.324.525c-1.17 0-1.677-.495-1.677-1.267v-7.711h4.001V15.33h-4.001V8.81l-3.524 2.688v3.832h-2.555v3.416h2.493v7.757c0 2.813 1.785 4.574 4.817 4.574zm12.188-.124c-5.124 0-7.679-3.694-7.679-7.82 0-4.048 2.385-8.005 7.402-8.005 5.617 0 7.249 3.987 7.249 7.974a5.2 5.2 0 0 1-.123 1.175h-10.557c.246 1.9 1.446 3.168 3.678 3.168 1.677 0 2.754-.278 3.847-1.422l2.585 2.272c-1.8 1.931-3.847 2.658-6.402 2.658zm-3.708-9.396h6.986c-.246-2.086-1.323-3.26-3.555-3.26-2.077 0-3.124 1.39-3.431 3.26zm13.835 9.21h3.616v-7.155c0-2.75 1.447-4.93 3.57-4.93.816 0 1.247.155 1.693.526l1.708-3.09c-.923-.727-2.246-1.02-3.247-1.02-1.292 0-2.616.602-3.693 2.194v-1.963h-3.647V30.77z" id="DeCenter"/></g></g></g></g></g></svg>