<svg width="142" height="30" xmlns="http://www.w3.org/2000/svg"><g id="DeCenter" fill="none" fill-rule="evenodd"><g id="feed/post" transform="translate(-330 -3570)" fill="#FFF"><g id="Footer" transform="translate(0 3521)"><g id="Logo-/-Footer" transform="translate(330 49)"><g id="Logo"><path d="M.763 0h11.606c8.446 0 15.257 6.11 15.257 14.972C27.626 23.89 20.816 30 12.37 30H.763C.218 30 0 29.78 0 29.23V.77C0 .33.327 0 .763 0zm15.73 12.848c-3.462 0-6.1 2.565-6.1 6.065 0 3.5 2.66 6.13 6.1 6.13 2.141 0 4.045-.956 5.148-2.782.086-.13.043-.261-.043-.348l-1.363-1.087c-.152-.13-.26-.109-.346 0-.887 1.283-1.926 1.826-3.397 1.826-2.141 0-3.59-1.587-3.59-3.739 0-2.13 1.427-3.674 3.59-3.674 1.45 0 2.445.565 3.332 1.761.086.109.26.174.41.043L21.599 16c.086-.065.13-.196.043-.348-1.038-1.782-3.115-2.804-5.149-2.804z" id="Combined-Shape"/><path d="M41.247 23.077V6.7h4.729c5.562 0 8.498 2.99 8.498 8.31 0 5.1-3.029 8.067-8.521 8.067h-4.706zm2.937-2.7h1.491c3.596 0 5.863-1.403 5.863-5.494C51.538 11 49.953 9.4 45.93 9.4h-1.746v10.975zm17.887 2.839c-3.85 0-5.77-2.77-5.77-5.865 0-3.036 1.792-6.003 5.562-6.003 4.22 0 5.446 2.99 5.446 5.98 0 .522-.093.881-.093.881h-7.932c.185 1.426 1.087 2.376 2.764 2.376 1.26 0 2.07-.209 2.89-1.066l1.943 1.704c-1.353 1.448-2.89 1.993-4.81 1.993zm-2.787-7.047h5.25c-.185-1.564-.995-2.445-2.671-2.445-1.561 0-2.347 1.043-2.579 2.445zm17.564 7.14c3.249 0 5.85-1.658 7.157-4.717l-2.729-1.113c-.879 2.202-2.324 3.037-4.428 3.037-3.504 0-4.995-2.492-4.995-5.75 0-3.036 1.491-5.528 4.948-5.528 2.128 0 3.816.835 4.429 2.99l2.752-1.089c-1.33-3.06-3.908-4.705-7.157-4.705-5.377 0-7.886 3.963-7.886 8.449 0 4.497 2.532 8.426 7.909 8.426zm14.325-.093c-3.85 0-5.77-2.77-5.77-5.865 0-3.036 1.793-6.003 5.562-6.003 4.22 0 5.446 2.99 5.446 5.98 0 .522-.092.881-.092.881h-7.932c.185 1.426 1.087 2.376 2.763 2.376 1.26 0 2.07-.209 2.89-1.066l1.943 1.704c-1.352 1.448-2.89 1.993-4.81 1.993zm-2.786-7.047h5.25c-.186-1.564-.995-2.445-2.672-2.445-1.56 0-2.347 1.043-2.578 2.445zm10.395 6.908h2.855v-6.34c0-1.449 1.33-2.793 2.891-2.793 1.468 0 1.85 1.113 1.85 2.538v6.595h2.867v-6.954c0-2.422-1.237-4.821-4.266-4.821-1.133 0-2.417.405-3.342 1.541v-1.344h-2.855v11.578zm17.968.232c1.156 0 2.08-.348 2.08-.348V20.4s-.82.394-1.745.394c-.879 0-1.26-.371-1.26-.95V14.06h3.006v-2.561h-3.006V6.608l-2.648 2.016V11.5h-1.92v2.56h1.873v5.82c0 2.108 1.342 3.43 3.62 3.43zm9.157-.093c-3.85 0-5.77-2.77-5.77-5.865 0-3.036 1.792-6.003 5.562-6.003 4.22 0 5.446 2.99 5.446 5.98 0 .522-.093.881-.093.881h-7.932c.185 1.426 1.087 2.376 2.764 2.376 1.26 0 2.07-.209 2.89-1.066l1.943 1.704c-1.353 1.448-2.89 1.993-4.81 1.993zm-2.787-7.047h5.25c-.185-1.564-.995-2.445-2.671-2.445-1.561 0-2.347 1.043-2.579 2.445zm10.395 6.908h2.717V17.71c0-2.063 1.087-3.697 2.683-3.697.612 0 .936.115 1.272.394l1.283-2.318c-.694-.545-1.688-.765-2.44-.765-.971 0-1.965.452-2.775 1.645V11.5h-2.74v11.578z" id="DeCenter"/></g></g></g></g></g></svg>