<svg width="37" height="40" xmlns="http://www.w3.org/2000/svg"><g id="DeCenter" fill="none" fill-rule="evenodd"><g id="feed/main_feed_mobile" transform="translate(-142 -20)" fill="#006CBC"><g id="Logo-/-D" transform="translate(142 20)"><g id="Logo"><path d="M1.017 0h15.475c11.262 0 20.343 8.147 20.343 19.963C36.835 31.853 27.754 40 16.492 40H1.017C.291 40 0 39.706 0 38.972V1.028C0 .44.436 0 1.017 0zM21.99 17.13c-4.615 0-8.134 3.42-8.134 8.087s3.548 8.174 8.134 8.174c2.855 0 5.394-1.275 6.865-3.71.115-.174.057-.348-.058-.464l-1.817-1.449c-.202-.174-.346-.145-.462 0-1.182 1.71-2.567 2.435-4.528 2.435-2.856 0-4.788-2.116-4.788-4.986 0-2.84 1.904-4.898 4.788-4.898 1.932 0 3.26.753 4.442 2.348.115.145.346.232.548.058l1.817-1.392c.115-.087.173-.26.058-.463-1.385-2.377-4.154-3.74-6.865-3.74z" id="Combined-Shape"/></g></g></g></g></svg>