<svg width="18" height="18" xmlns="http://www.w3.org/2000/svg"><g id="Symbols" fill="none" fill-rule="evenodd" opacity=".54"><g id="Material/Light/Search-360dp" transform="translate(-19 -15)" fill="#000"><g id="Material/Icons-black/search" transform="translate(16 12)"><path d="M15.502 9.491h-.794l-.276.274A6.47 6.47 0 0 1 16 13.991a6.5 6.5 0 1 1-6.5-6.5 6.47 6.47 0 0 1 4.225 1.566l.276-.274v-.792L18.999 3l1.491 1.491-4.988 5zm-6.002 0a4.5 4.5 0 1 0 0 9 4.5 4.5 0 0 0 0-9z" id="Shape" transform="matrix(1 0 0 -1 0 23.491)"/></g></g></g></svg>