<?xml version="1.0" encoding="UTF-8"?>
<svg width="16px" height="18px" viewBox="0 0 16 18" version="1.1" xmlns="http://www.w3.org/2000/svg" xmlns:xlink="http://www.w3.org/1999/xlink">
    <!-- Generator: Sketch 50.2 (55047) - http://www.bohemiancoding.com/sketch -->
    <title>Shape</title>
    <desc>Created with Sketch.</desc>
    <defs></defs>
    <g id="Symbols" stroke="none" stroke-width="1" fill="none" fill-rule="evenodd">
        <g id="Icon-/-Post-/-Time" transform="translate(-4.000000, -3.000000)" fill="#453C91" fill-rule="nonzero">
            <path d="M9.07716148,3.85714286 L9.07716148,3.85714286 C9.07716148,4.33052979 9.46091741,4.71428571 9.93430434,4.71428571 L13.2971801,4.71428571 C13.770567,4.71428571 14.154323,4.33052979 14.154323,3.85714286 L14.154323,3.85714286 C14.154323,3.38375593 13.770567,3 13.2971801,3 L9.93430434,3 C9.46091741,3 9.07716148,3.38375593 9.07716148,3.85714286 Z M16.9573392,5.19056923 L16.9573392,5.19056923 C16.6540931,5.55295576 16.6985181,6.09179655 17.0570204,6.39962489 L18.2591659,7.43184819 C18.6118342,7.73466716 19.1432117,7.69425627 19.4460307,7.34158794 C19.448354,7.3388821 19.4506602,7.33616152 19.452949,7.33342637 L19.452949,7.33342637 C19.7561953,6.9710399 19.7117703,6.43219897 19.3532679,6.12437064 L18.1511217,5.09214713 C17.7984535,4.78932838 17.2670764,4.82973934 16.9642576,5.18240753 C16.9619342,5.18511341 16.959628,5.18783403 16.9573392,5.19056923 Z M11.6157422,5.57142857 C7.41692968,5.57142857 4,9.03257143 4,13.2857143 C4,17.5388571 7.41692968,21 11.6157422,21 C15.8145548,21 19.2314845,17.5388571 19.2314845,13.2857143 C19.2314845,9.03257143 15.8145548,5.57142857 11.6157422,5.57142857 Z M10.7695486,8.14285714 L12.4619358,8.14285714 L12.4619358,14.1428571 L10.7695486,14.1428571 L10.7695486,8.14285714 Z" id="Shape"></path>
        </g>
    </g>
</svg>