<?xml version="1.0" encoding="UTF-8"?>
<svg width="40px" height="40px" viewBox="0 0 40 40" version="1.1" xmlns="http://www.w3.org/2000/svg" xmlns:xlink="http://www.w3.org/1999/xlink">
    <!-- Generator: Sketch 52.5 (67469) - http://www.bohemiancoding.com/sketch -->
    <title>Buttons / Top</title>
    <desc>Created with Sketch.</desc>
    <g id="Buttons-/-Top" stroke="none" stroke-width="1" fill="none" fill-rule="evenodd">
        <path d="M10,0 L30,0 C35.5228475,-1.01453063e-15 40,4.4771525 40,10 L40,30 C40,35.5228475 35.5228475,40 30,40 L10,40 C4.4771525,40 6.76353751e-16,35.5228475 0,30 L0,10 C-6.76353751e-16,4.4771525 4.4771525,1.01453063e-15 10,0 Z" id="Rectangle-3"></path>
        <path d="M20,40 C31.045,40 40,31.045 40,20 C40,8.955 31.045,0 20,0 C8.955,0 0,8.955 0,20 C0,31.045 8.955,40 20,40 Z M10.4883333,18.8216667 L17.155,12.155 C17.48,11.83 17.9066667,11.6666667 18.3333333,11.6666667 C18.76,11.6666667 19.1866667,11.83 19.5116667,12.155 C20.1633333,12.8066667 20.1633333,13.86 19.5116667,14.5116667 L15.69,18.3333333 L28.3333333,18.3333333 C29.2533333,18.3333333 30,19.0783333 30,20 C30,20.9216667 29.2533333,21.6666667 28.3333333,21.6666667 L15.69,21.6666667 L19.5116667,25.4883333 C20.1633333,26.14 20.1633333,27.1933333 19.5116667,27.845 C18.86,28.4966667 17.8066667,28.4966667 17.155,27.845 L10.4883333,21.1783333 C9.83666667,20.5266667 9.83666667,19.4733333 10.4883333,18.8216667 Z" id="Shape" fill="#453C91" fill-rule="nonzero" transform="translate(20.000000, 20.000000) rotate(-270.000000) translate(-20.000000, -20.000000) "></path>
    </g>
</svg>