<svg width="40" height="40" xmlns="http://www.w3.org/2000/svg"><g id="DeCenter" fill="none" fill-rule="evenodd"><g id="feed/post" transform="translate(-497 -298)"><g id="Buttons-/-Social-/FB" transform="translate(497 298)"><rect id="Rectangle-3" fill="#3A589B" width="40" height="40" rx="10"/><g id="Icon-/-Social-/-FB" transform="translate(5 5)"><path id="bounds" d="M0 0h30v30H0z"/><path d="M23.896 25H6.104C5.494 25 5 24.506 5 23.896V6.104C5 5.494 5.494 5 6.104 5h17.792C24.506 5 25 5.494 25 6.104v17.792c0 .61-.494 1.104-1.104 1.104zM18.8 25v-7.745h2.6l.389-3.019h-2.99V12.31c0-.873.243-1.469 1.497-1.469h1.598v-2.7a21.367 21.367 0 0 0-2.33-.12c-2.304 0-3.881 1.407-3.881 3.99v2.226h-2.607v3.019h2.607V25H18.8z" id="Blue_1_" fill="#FFF" fill-rule="nonzero"/></g></g></g></g></svg>