<svg width="40" height="40" xmlns="http://www.w3.org/2000/svg"><g id="DeCenter" fill="none" fill-rule="evenodd"><g id="feed/post" transform="translate(-447 -298)"><g id="Buttons-/-Social-/TG" transform="translate(447 298)"><rect id="Rectangle-3" fill="#3B9EDB" width="40" height="40" rx="10"/><g id="Icon-/-Social-/-TG" transform="translate(5 5)"><path id="bounds" d="M0 0h30v30H0z"/><path d="M13.38 17.388l-.265 3.87c.39 0 .561-.174.778-.38l1.87-1.773 3.888 2.803c.716.385 1.233.185 1.41-.649l2.554-11.735c.261-1.022-.4-1.486-1.084-1.182L7.54 13.98c-1.024.4-1.018.957-.187 1.206l3.847 1.17 8.905-5.48c.42-.249.807-.115.49.159l-7.216 6.353z" id="Shape" fill="#FFF"/></g></g></g></g></svg>