<svg width="40" height="40" xmlns="http://www.w3.org/2000/svg"><g id="DeCenter" fill="none" fill-rule="evenodd"><g id="feed/post" transform="translate(-547 -298)"><g id="Share" transform="translate(330 298)"><g id="Buttons-/-Social-/-Twi" transform="translate(217)"><rect id="Rectangle-3" fill="#2AA3EF" width="40" height="40" rx="10"/><g id="Icon-/-Social-/-Twi" transform="translate(5 5)"><path id="bounds" d="M0 0h30v30H0z"/><path d="M26 8.894a8.343 8.343 0 0 1-2.357.637 4.074 4.074 0 0 0 1.804-2.236c-.793.462-1.673.8-2.607.98A4.126 4.126 0 0 0 19.845 7c-2.265 0-4.103 1.81-4.103 4.04 0 .315.037.625.107.92a11.713 11.713 0 0 1-8.457-4.224 3.977 3.977 0 0 0-.555 2.035c0 1.401.723 2.636 1.825 3.36a4.117 4.117 0 0 1-1.86-.504v.051c0 1.957 1.414 3.589 3.292 3.962a4.127 4.127 0 0 1-1.08.141c-.266 0-.523-.024-.773-.072a4.098 4.098 0 0 0 3.831 2.804 8.294 8.294 0 0 1-5.095 1.729c-.333 0-.656-.018-.977-.055A11.745 11.745 0 0 0 12.29 23c7.546 0 11.674-6.156 11.674-11.491 0-.178-.003-.352-.013-.526A8.139 8.139 0 0 0 26 8.893" id="Shape" fill="#FAFAFA" fill-rule="nonzero"/></g></g></g></g></g></svg>