<svg width="40" height="40" xmlns="http://www.w3.org/2000/svg"><g id="DeCenter" fill="none" fill-rule="evenodd"><g id="feed/post" transform="translate(-547 -298)"><g id="Buttons-/-Social-/TG" transform="translate(547 298)"><rect id="Rectangle-3" fill="#517298" width="40" height="40" rx="10"/><g id="Icon-/-Social-/-VK" transform="translate(5 5)"><path id="bounds" d="M0 0h30v30H0z"/><path d="M14.759 21.697h1.344s.407-.045.614-.267c.191-.204.185-.587.185-.587s-.026-1.792.811-2.056c.826-.26 1.886 1.732 3.01 2.498.85.58 1.495.453 1.495.453l3.005-.041s1.572-.097.826-1.324c-.06-.1-.434-.908-2.234-2.568-1.884-1.737-1.631-1.456.638-4.46 1.382-1.83 1.935-2.947 1.762-3.426-.164-.456-1.181-.335-1.181-.335l-3.383.02s-.251-.033-.437.077c-.182.108-.299.36-.299.36s-.535 1.416-1.25 2.62c-1.506 2.542-2.108 2.676-2.354 2.518-.573-.368-.43-1.477-.43-2.265 0-2.463.376-3.49-.732-3.755-.368-.088-.639-.147-1.58-.156-1.207-.012-2.228.004-2.807.285-.385.187-.682.604-.5.628.223.03.73.136.998.499.347.469.334 1.52.334 1.52s.2 2.9-.465 3.26c-.456.246-1.081-.258-2.424-2.563a21.381 21.381 0 0 1-1.208-2.486s-.1-.244-.279-.375a1.403 1.403 0 0 0-.52-.208l-3.215.02s-.482.014-.66.223c-.157.185-.012.569-.012.569s2.517 5.849 5.367 8.796c2.613 2.703 5.58 2.526 5.58 2.526" id="path2442" fill="#FAFAFA"/></g></g></g></g></svg>