<svg width="40" height="40" xmlns="http://www.w3.org/2000/svg"><g id="DeCenter" fill="none" fill-rule="evenodd"><g id="feed/post" transform="translate(-647 -298)"><g id="Share" transform="translate(330 298)"><g id="Buttons-/-Social-/-Twi" transform="translate(317)"><rect id="Rectangle-3" fill="#56C865" width="40" height="40" rx="10"/><g id="Icon-/-Social-/-Whatsapp" transform="translate(5 5)"><path id="bounds" d="M0 0h30v30H0z"/><path d="M22.087 7.908A9.903 9.903 0 0 0 15.043 5c-5.49 0-9.957 4.447-9.957 9.909a9.802 9.802 0 0 0 1.328 4.954L5 25l5.28-1.38a10.007 10.007 0 0 0 4.759 1.21h.004c5.487 0 9.953-4.447 9.957-9.913a9.821 9.821 0 0 0-2.913-7.01zm-2.173 10.544c-.206.578-1.222 1.136-1.678 1.175-.46.043-.888.205-2.987-.617-2.53-.992-4.128-3.574-4.252-3.74-.125-.163-1.013-1.342-1.013-2.56 0-1.22.643-1.817.869-2.065a.92.92 0 0 1 .666-.31c.163 0 .33 0 .475.007.179.004.374.016.56.427.222.488.705 1.713.768 1.837.062.124.105.271.02.434-.083.167-.125.268-.246.415-.125.144-.261.322-.374.43-.125.124-.253.26-.11.508.145.248.643 1.059 1.383 1.714.95.845 1.753 1.105 2.002 1.229.25.124.393.104.537-.062.148-.163.623-.721.79-.97.164-.248.332-.205.558-.124.23.082 1.452.683 1.701.807.25.124.413.186.475.287.063.104.063.6-.144 1.178z" id="Shape" fill="#FAFAFA" fill-rule="nonzero"/></g></g></g></g></g></svg>